<?xml version="1.0" standalone="no"?>
<!DOCTYPE svg PUBLIC "-//W3C//DTD SVG 20010904//EN"
 "http://www.w3.org/TR/2001/REC-SVG-20010904/DTD/svg10.dtd">
<svg version="1.0" xmlns="http://www.w3.org/2000/svg"
 width="1024.000000pt" height="1280.000000pt" viewBox="0 0 1024.000000 1280.000000"
 preserveAspectRatio="xMidYMid meet">

<g transform="translate(0.000000,1280.000000) scale(0.100000,-0.100000)"
fill="#000000" stroke="none">
<path d="M13 8288 c3 -3409 6 -4527 15 -4603 11 -92 26 -190 53 -355 18 -110
88 -387 128 -509 139 -420 349 -801 619 -1121 90 -106 360 -370 462 -451 851
-678 2010 -1065 3693 -1234 140 -14 190 -11 497 24 2181 251 3546 929 4250
2110 269 453 435 1007 485 1620 13 150 15 838 15 4599 l0 4422 -5110 0 -5110
0 3 -4502z m9939 3335 c2 -494 4 -2399 6 -4233 2 -2842 0 -3365 -12 -3540 -42
-580 -186 -1085 -438 -1529 -33 -58 -66 -113 -74 -122 -8 -8 -14 -19 -14 -23
0 -5 -13 -25 -30 -46 -16 -21 -30 -42 -30 -48 0 -6 -3 -12 -7 -14 -5 -1 -28
-30 -52 -63 -109 -148 -341 -391 -491 -515 -244 -202 -566 -402 -880 -549
-112 -52 -359 -156 -410 -171 -14 -5 -77 -27 -140 -50 -128 -45 -474 -148
-590 -175 -41 -9 -102 -23 -135 -31 -260 -61 -617 -126 -905 -164 -80 -11
-156 -22 -170 -25 -14 -2 -122 -14 -240 -26 -211 -21 -219 -21 -390 -5 -568
56 -1285 183 -1685 301 -362 106 -496 152 -730 246 -155 63 -486 229 -635 318
-122 74 -344 226 -402 276 -13 11 -61 52 -108 91 -79 67 -245 232 -315 314
-135 159 -272 349 -325 450 -7 14 -16 27 -19 30 -7 6 -108 209 -149 300 -134
297 -238 717 -284 1145 -9 83 -13 1190 -15 4433 l-3 4322 4834 0 4834 0 4
-897z"/>
<path d="M4786 5981 c-2 -3 5 -64 15 -136 10 -71 24 -195 30 -273 12 -138 13
-144 33 -139 185 44 299 48 440 17 49 -11 90 -19 92 -17 1 1 7 67 14 147 7 80
20 201 30 270 10 69 16 128 14 131 -2 3 -34 1 -71 -4 -88 -13 -450 -12 -531 0
-34 5 -64 7 -66 4z"/>
<path d="M4910 5396 c-105 -17 -173 -55 -218 -124 -24 -36 -21 -249 4 -287 23
-35 114 -60 114 -30 0 19 24 31 101 48 114 26 198 30 320 13 143 -20 180 -30
200 -57 14 -19 19 -20 56 -10 60 16 76 47 81 156 2 50 -1 108 -7 131 -22 82
-100 138 -224 160 -98 17 -320 17 -427 0z"/>
<path d="M4983 4955 c-104 -23 -93 -1 -142 -297 -23 -144 -51 -308 -61 -363
-10 -55 -24 -140 -31 -189 -12 -85 -12 -90 6 -100 80 -46 185 -185 236 -313
26 -63 61 -192 55 -200 -1 -1 -54 17 -117 41 -215 82 -322 102 -492 93 -149
-8 -215 -24 -458 -117 -307 -118 -381 -139 -529 -149 l-85 -6 1 -110 c0 -60 4
-149 8 -197 l8 -87 46 -4 c46 -3 46 -3 -9 -5 l-57 -2 -7 -37 c-4 -21 -20 -72
-36 -113 -16 -41 -31 -90 -35 -107 l-6 -33 90 0 c96 0 214 23 312 60 58 22
243 114 345 172 344 193 605 197 975 14 51 -25 96 -44 98 -41 3 3 7 60 9 127
3 108 2 126 -14 143 -10 12 -27 24 -37 28 -10 4 -17 10 -14 13 3 2 17 0 31 -5
14 -5 28 -7 31 -4 3 4 6 63 6 133 0 121 -1 128 -25 154 l-24 26 62 0 62 -1
-27 -17 -28 -17 0 -127 c0 -71 0 -131 0 -135 1 -5 20 -7 43 -6 l42 2 -42 -21
-43 -22 0 -133 c0 -73 2 -133 4 -133 11 0 87 30 194 77 160 70 257 93 392 93
196 -1 313 -42 665 -237 181 -101 324 -143 485 -143 71 0 90 3 90 14 0 20 -80
248 -92 264 -6 6 -34 13 -62 14 l-51 1 50 6 50 6 6 45 c4 25 8 113 10 194 l4
149 -69 4 c-122 6 -293 51 -471 123 -289 117 -362 137 -535 146 -172 9 -321
-21 -528 -108 -40 -17 -74 -29 -77 -27 -7 8 24 128 52 197 51 130 146 257 232
315 l25 16 -13 83 c-22 140 -68 423 -103 626 -25 148 -37 196 -50 203 -32 17
-160 39 -226 38 -37 0 -95 -7 -129 -14z m165 -826 c3 -28 -16 -43 -43 -33 -30
12 -13 67 19 62 14 -2 22 -11 24 -29z m657 -858 c93 -11 188 -31 182 -38 -3
-2 -42 3 -87 11 -106 20 -291 20 -409 0 -116 -20 -131 -12 -19 10 145 28 206
31 333 17z m-1013 -22 c49 -12 88 -23 86 -25 -2 -2 -53 6 -113 16 -133 24
-311 26 -425 4 -45 -8 -84 -13 -87 -11 -13 14 169 35 301 36 118 1 167 -3 238
-20z m1336 -60 c59 -23 112 -46 117 -52 7 -7 4 -7 -10 -2 -11 4 -64 25 -117
45 -136 53 -125 48 -110 49 8 1 62 -18 120 -40z m-1211 25 c-3 -3 -12 -4 -19
-1 -8 3 -5 6 6 6 11 1 17 -2 13 -5z m-738 -8 c-2 -2 -58 -25 -124 -51 -66 -26
-124 -51 -130 -55 -16 -13 -158 -71 -162 -67 -3 4 239 114 342 156 44 18 86
27 74 17z m811 -11 c19 -7 28 -13 20 -13 -8 0 -31 6 -50 13 -19 7 -28 13 -20
13 8 0 31 -6 50 -13z m275 -5 c-11 -5 -27 -9 -35 -9 -9 0 -8 4 5 9 11 5 27 9
35 9 9 0 8 -4 -5 -9z m1082 -96 c43 -20 134 -56 203 -80 69 -24 119 -43 111
-43 -26 -1 -217 68 -311 112 -52 25 -92 46 -88 46 4 1 42 -15 85 -35z m-2680
-100 c-3 -3 -12 -4 -19 -1 -8 3 -5 6 6 6 11 1 17 -2 13 -5z m3071 -31 c-10 -2
-26 -2 -35 0 -10 3 -2 5 17 5 19 0 27 -2 18 -5z"/>
</g>
</svg>
